<svg width="64" height="64" viewBox="0 0 64 64" fill="none" xmlns="http://www.w3.org/2000/svg">
<g id="pause-circle">
<rect x="2" y="2" width="60" height="60" rx="12" fill="#515459"/>
<path id="Vector" d="M22.6667 22.6666V21.6666C22.1144 21.6666 21.6667 22.1143 21.6667 22.6666H22.6667ZM22.6667 41.3333H21.6667C21.6667 41.8856 22.1144 42.3333 22.6667 42.3333V41.3333ZM27.3334 41.3333V42.3333C27.8856 42.3333 28.3334 41.8856 28.3334 41.3333H27.3334ZM27.3334 22.6666H28.3334C28.3334 22.1143 27.8856 21.6666 27.3334 21.6666V22.6666ZM36.6667 22.6666V21.6666C36.1144 21.6666 35.6667 22.1143 35.6667 22.6666H36.6667ZM36.6667 41.3333H35.6667C35.6667 41.8856 36.1144 42.3333 36.6667 42.3333V41.3333ZM41.3334 41.3333V42.3333C41.8856 42.3333 42.3334 41.8856 42.3334 41.3333H41.3334ZM41.3334 22.6666H42.3334C42.3334 22.1143 41.8856 21.6666 41.3334 21.6666V22.6666ZM32 56.3333C45.4389 56.3333 56.3334 45.4389 56.3334 32H54.3334C54.3334 44.3343 44.3344 54.3333 32 54.3333V56.3333ZM56.3334 32C56.3334 18.561 45.4389 7.66663 32 7.66663V9.66663C44.3344 9.66663 54.3334 19.6656 54.3334 32H56.3334ZM32 7.66663C18.5611 7.66663 7.66669 18.561 7.66669 32H9.66669C9.66669 19.6656 19.6657 9.66663 32 9.66663V7.66663ZM7.66669 32C7.66669 45.4389 18.5611 56.3333 32 56.3333V54.3333C19.6657 54.3333 9.66669 44.3343 9.66669 32H7.66669ZM21.6667 22.6666V41.3333H23.6667V22.6666H21.6667ZM22.6667 42.3333H27.3334V40.3333H22.6667V42.3333ZM28.3334 41.3333V22.6666H26.3334V41.3333H28.3334ZM27.3334 21.6666H22.6667V23.6666H27.3334V21.6666ZM35.6667 22.6666V41.3333H37.6667V22.6666H35.6667ZM36.6667 42.3333H41.3334V40.3333H36.6667V42.3333ZM42.3334 41.3333V22.6666H40.3334V41.3333H42.3334ZM41.3334 21.6666H36.6667V23.6666H41.3334V21.6666Z" fill="#F5F5F5"/>
<rect x="2" y="2" width="60" height="60" rx="12" stroke="white" stroke-width="4"/>
</g>
</svg>
